<?xml version="1.0" encoding="UTF-8"?>
<svg width="700pt" height="700pt" version="1.1" viewBox="0 0 700 700" xmlns="http://www.w3.org/2000/svg">
  <g>
    <path fill="white"
      d="m288.73 78.75-87.473 0.066406c-28.934 0.015625-52.512 23.512-52.512 52.441v85.336h0.003906c0 2.3203 0.92188 4.5469 2.5625 6.1875s3.8672 2.5625 6.1875 2.5625 4.543-0.92188 6.1836-2.5625 2.5625-3.8672 2.5625-6.1875v-85.336c0-19.539 15.473-34.996 35.012-34.996h87.473c4.832 0 8.75-3.918 8.75-8.75s-3.918-8.75-8.75-8.75zm122.48 0c-4.832 0-8.75 3.918-8.75 8.75s3.918 8.75 8.75 8.75h87.539c19.539 0 34.996 15.457 34.996 34.996v85.336c0 4.832 3.918 8.75 8.75 8.75s8.75-3.918 8.75-8.75l-0.066406-85.336c-0.015625-28.934-23.512-52.441-52.441-52.441zm-253.72 251.56c-4.832 0-8.75 3.918-8.75 8.75v89.676c0 28.934 23.578 52.512 52.512 52.512h87.473c4.832 0 8.75-3.918 8.75-8.75s-3.918-8.75-8.75-8.75h-87.469c-19.539 0-35.012-15.473-35.012-35.012v-89.676c0-4.832-3.918-8.75-8.75-8.75zm385 0c-4.832 0-8.75 3.918-8.75 8.75v89.676c0 19.539-15.457 35.012-34.996 35.012h-87.539c-4.832 0-8.75 3.918-8.75 8.75s3.918 8.75 8.75 8.75h87.539c28.934 0 52.441-23.578 52.441-52.512l0.03125-89.676c0-4.832-3.918-8.75-8.75-8.75z" />
    <path fill="white"
      d="m446.22 148.75-166.2 0.015625c-19.238 0-35.016 15.762-35.016 35v192.23c-0.015625 0.44141-0.03125 0.91406 0 1.3203 0.57812 18.738 16.156 33.941 35.031 33.941h166.18c4.8594 0.019531 8.8047-3.9258 8.7852-8.7852v-245c-0.019531-4.832-3.9531-8.7344-8.7852-8.7148zm-166.2 210.02h157.48v35h-157.48c-9.8477 0-17.516-7.6562-17.516-17.5s7.6719-17.5 17.516-17.5z" />
  </g>
</svg>